# xmcd CD database file
#
# Track frame offsets:
#	150
#	28522
#	70071
#	100575
#	112761
#	126706
#	156161
#	176699
#	200153
#	231541
#	243507
#
# Disc length: 4060 seconds
#
# Revision: 0
# Processed by: cddbd v1.5.2PL0 Copyright (c) Steve Scherf et al.
# Submitted via: CDex 1.51
#
DISCID=990fda0b
DTITLE=Coleman Hawkins - The Evolution of an Artist-CD2
DYEAR=2011
DGENRE=Jazz
TTITLE0=Bean Stalkin
TTITLE1=Sancticity
TTITLE2=Blues Wail
TTITLE3=On The Bean
TTITLE4=Cocktails For Two
TTITLE5=Sunday Mornin
TTITLE6=Laura
TTITLE7=Through For The Night
TTITLE8=Im Beginning To See The Light
TTITLE9=Bean And The Boys (Take 1)
TTITLE10=Blues For Tomorrow
EXTD=YEAR: 2011
EXTT0=
EXTT1=
EXTT2=
EXTT3=
EXTT4=
EXTT5=
EXTT6=
EXTT7=
EXTT8=
EXTT9=
EXTT10=
PLAYORDER=
